<svg xmlns="http://www.w3.org/2000/svg" xmlns:xlink="http://www.w3.org/1999/xlink" width="20" height="20" viewBox="0 0 20 20">
  <defs>
    <clipPath id="clip-path">
      <path id="Path_15" data-name="Path 15" d="M0-49.652H20v20H0Z" transform="translate(0 49.652)" fill="#fff"/>
    </clipPath>
  </defs>
  <g id="Group_35" data-name="Group 35" transform="translate(0)" clip-path="url(#clip-path)">
    <g id="Group_34" data-name="Group 34" transform="translate(0 0)">
      <path id="Path_14" data-name="Path 14" d="M-18.513-15.348H-20.14v5.8h-2.41v-5.8H-23.7V-17.4h1.146v-1.326a2.261,2.261,0,0,1,2.433-2.433l1.786.007v1.989h-1.3a.491.491,0,0,0-.511.558v1.2H-18.3ZM-21-25.7a10.012,10.012,0,0,0-10,10,10.012,10.012,0,0,0,10,10,10.012,10.012,0,0,0,10-10,10.011,10.011,0,0,0-10-10" transform="translate(31 25.7)" fill="#fff"/>
    </g>
  </g>
</svg>
