<svg xmlns="http://www.w3.org/2000/svg" xmlns:xlink="http://www.w3.org/1999/xlink" width="20" height="20" viewBox="0 0 20 20">
  <defs>
    <clipPath id="clip-path">
      <path id="Path_7" data-name="Path 7" d="M0-49.652H20v20H0Z" transform="translate(0 49.652)" fill="#fff"/>
    </clipPath>
  </defs>
  <g id="Group_17" data-name="Group 17" clip-path="url(#clip-path)">
    <g id="Group_13" data-name="Group 13" transform="translate(7.999 7.998)">
      <path id="Path_3" data-name="Path 3" d="M-2.967-5.936a2.005,2.005,0,0,0,2-2A1.993,1.993,0,0,0-1.343-9.1a2,2,0,0,0-1.623-.835A2,2,0,0,0-4.589-9.1a1.99,1.99,0,0,0-.379,1.167,2,2,0,0,0,2,2" transform="translate(4.968 9.939)" fill="#fff"/>
    </g>
    <g id="Group_14" data-name="Group 14" transform="translate(12.443 5.623)">
      <path id="Path_4" data-name="Path 4" d="M-2.859-2.858V-4.786H-3.11l-1.677.005.006,1.929Z" transform="translate(4.787 4.786)" fill="#fff"/>
    </g>
    <g id="Group_15" data-name="Group 15" transform="translate(0 0)">
      <path id="Path_5" data-name="Path 5" d="M-23.258-13.1V-8.44a2.2,2.2,0,0,1-2.2,2.2h-6.978a2.2,2.2,0,0,1-2.2-2.2v-6.979a2.2,2.2,0,0,1,2.2-2.2h6.978a2.2,2.2,0,0,1,2.2,2.2Zm-5.687-8.833a10.012,10.012,0,0,0-10,10,10.012,10.012,0,0,0,10,10,10.012,10.012,0,0,0,10-10,10.011,10.011,0,0,0-10-10" transform="translate(38.945 21.93)" fill="#fff"/>
    </g>
    <g id="Group_16" data-name="Group 16" transform="translate(5.42 8.833)">
      <path id="Path_6" data-name="Path 6" d="M-11.4-1.729a3.115,3.115,0,0,1-3.111,3.111,3.114,3.114,0,0,1-3.11-3.111A3.1,3.1,0,0,1-17.394-2.9h-1.7V1.76A1.09,1.09,0,0,0-18,2.849h6.978A1.09,1.09,0,0,0-9.934,1.76V-2.9h-1.7A3.074,3.074,0,0,1-11.4-1.729" transform="translate(19.092 2.896)" fill="#fff"/>
    </g>
  </g>
</svg>
