<svg xmlns="http://www.w3.org/2000/svg" xmlns:xlink="http://www.w3.org/1999/xlink" width="145.946" height="97.106" viewBox="0 0 145.946 97.106">
  <defs>
    <clipPath id="clip-path">
      <path id="Path_25" data-name="Path 25" d="M0-846.629H145.946v97.106H0Z" transform="translate(0 846.629)" fill="#fff"/>
    </clipPath>
  </defs>
  <g id="Group_123" data-name="Group 123" transform="translate(0 846.629)">
    <g id="Group_57" data-name="Group 57" transform="translate(0 -846.629)" clip-path="url(#clip-path)">
      <g id="Group_48" data-name="Group 48" transform="translate(14.146 0.156)">
        <path id="Path_16" data-name="Path 16" d="M-116.248-300.753a.318.318,0,0,0-.312-.489h-3.832a.317.317,0,0,1-.311-.489l9.609-20.54c.126-.269.255-.247.287.048l1.754,16.052c.032.3.059.537.059.537h4.679l.34-.42,15.769-19.565c.186-.231.262-.19.167.091L-96-301.756a.8.8,0,0,1-.711.512h-3.2a.745.745,0,0,0-.679.522l-.974,3.636a.394.394,0,0,0,.4.522h2.889c.3,0,.538.005.536.012s.239.012.536.012h3.6c.3,0,.542-.005.544-.011s.247-.011.544-.011l34.834.006a.444.444,0,0,0,.451-.532l-.6-3.639a.661.661,0,0,0-.628-.532l-32.481.013a.365.365,0,0,1-.368-.512l10.542-31.427a1.043,1.043,0,0,1,.7-.621l3.431-.711a.924.924,0,0,0,.652-.635l.973-4.142a.315.315,0,0,0-.4-.411l-13.652,2.954a1.227,1.227,0,0,0-.755.6l-2.013,4.339c-.125.269.011.44.3.38l3.481-.722c.291-.06.376.08.19.311l-16.655,20.669c-.186.231-.365.179-.4-.116l-1.768-16.3a.615.615,0,0,1,.469-.651l2.516-.544a1.227,1.227,0,0,0,.755-.6l2.013-4.339c.125-.269-.01-.438-.3-.375l-13.652,2.954a1.227,1.227,0,0,0-.755.6l-2.012,4.339c-.125.269.01.438.3.376l3.048-.659c.29-.063.425.106.3.375l-11.371,24.385a.926.926,0,0,1-.768.489h-2.615a.926.926,0,0,0-.768.489l-1.725,3.7a.318.318,0,0,0,.312.49h12.21a.926.926,0,0,0,.768-.49Z" transform="translate(131.308 339.718)" fill="#fff"/>
      </g>
      <g id="Group_49" data-name="Group 49" transform="translate(74.628 0)">
        <path id="Path_17" data-name="Path 17" d="M-36.112-226.556a.5.5,0,0,1,.539-.507l10.154.612a.718.718,0,0,1,.631.564l2.225,12.782a.667.667,0,0,0,.633.532h3.6a.439.439,0,0,0,.447-.532l-3-17.234a.719.719,0,0,0-.631-.565l-3.653-.225c-.3-.018-.539-.032-.538-.03s-.1,0-.224-.01.007-.088.289-.179l3.758-1.21.514-.166s0,0,0,0l-.093-.532-2.445-13.984a.338.338,0,0,1,.435-.418l16.115,3.481c.29.063.444-.114.341-.392l-1.5-4.074a1.1,1.1,0,0,0-.715-.62l-18.08-3.9-1.055-.229-.809-.176a.338.338,0,0,0-.435.417l2.9,16.614a.643.643,0,0,1-.42.7l-8.466,2.762a.369.369,0,0,1-.513-.372v-21.013a.7.7,0,0,0-.528-.653l-3.623-.78a.419.419,0,0,0-.528.426v34.87a.541.541,0,0,0,.54.54h3.6a.542.542,0,0,0,.54-.54Z" transform="translate(40.791 255.908)" fill="#fff"/>
      </g>
      <g id="Group_50" data-name="Group 50" transform="translate(59.376 11.047)">
        <path id="Path_18" data-name="Path 18" d="M-88.175-.845c-.133.025-.481.086-.774.137l-4.063.7a1.011,1.011,0,0,0-.709.6l-1.445,4.161c-.1.28.063.471.356.424l.86-.138a.367.367,0,0,1,.447.447l-2.133,13.151a.658.658,0,0,1-.626.533h-1.462a.785.785,0,0,0-.7.515l-1.149,3.649a.374.374,0,0,0,.378.515H-88.74a.541.541,0,0,0,.54-.54v-3.6a.541.541,0,0,0-.54-.54h-1.78a.449.449,0,0,1-.457-.533l2.168-13.9a.794.794,0,0,1,.616-.619l.518-.083a.657.657,0,0,0,.533-.625V-.478c0-.3-.178-.509-.4-.472s-.4.066-.4.064-.108.016-.241.041" transform="translate(99.599 0.954)" fill="#fff"/>
      </g>
      <g id="Group_51" data-name="Group 51" transform="translate(96.385 7.831)">
        <path id="Path_19" data-name="Path 19" d="M-3.459-37.5c-.29-.063-.489.089-.441.338s.085.453.085.453.043.238.1.53L1.777-7.382a.629.629,0,0,0,.548.53h25.26c.3,0,.54-.005.54-.012s.243-.012.54-.012H31.15a.318.318,0,0,0,.312-.49L25.214-20.783a1.058,1.058,0,0,0-.765-.545l-3.841-.4c-.3-.03-.434.165-.309.434l4.316,9.27a.318.318,0,0,1-.312.49H6.2a.68.68,0,0,1-.641-.53L4.311-18.6a.377.377,0,0,1,.435-.472l11.138,1.219c.3.032.442-.165.326-.438l-1.689-3.976a1.013,1.013,0,0,0-.748-.553L3.831-23.868a.774.774,0,0,1-.638-.587L1.914-31.143a.331.331,0,0,1,.426-.415l14.484,3.152c.29.063.528.116.529.118s.239.055.529.118l4.148.9c.29.063.425-.106.3-.375L16.177-40.857a1.225,1.225,0,0,0-.756-.6l-4.14-.884c-.29-.062-.425.107-.3.377l3.72,7.985c.125.269-.009.438-.3.374Z" transform="translate(3.907 42.356)" fill="#fff"/>
      </g>
      <g id="Group_52" data-name="Group 52" transform="translate(49.328 56.476)">
        <path id="Path_20" data-name="Path 20" d="M-156.712-113.241a.374.374,0,0,0,.515-.379v-13.753a.541.541,0,0,0-.54-.54h-19.886a.362.362,0,0,0-.365.511l9.429,27.508c.1.281.177.51.18.509s.243.049.533.111l10.357,2.211c.29.062.528.11.528.106s.011,0,.024,0a2.858,2.858,0,0,0,.024-.533v-8.8a.783.783,0,0,0-.515-.7l-4.318-1.353a.374.374,0,0,0-.515.378v3.994a.42.42,0,0,1-.528.427l-.823-.176a1.084,1.084,0,0,1-.711-.621l-6.383-17.717a.355.355,0,0,1,.357-.508h7.263a.541.541,0,0,1,.54.54v6.728a.784.784,0,0,0,.515.7Z" transform="translate(177.016 127.912)" fill="#fff"/>
      </g>
      <g id="Group_53" data-name="Group 53" transform="translate(86.103 56.403)">
        <path id="Path_21" data-name="Path 21" d="M-64.023-217.067l1.055-.231,24.124-5.21a1.247,1.247,0,0,0,.76-.6l2.383-4.99c.128-.268,0-.436-.3-.373l-24.442,5.28a.346.346,0,0,1-.444-.419l3.29-20.971a.456.456,0,0,0-.456-.541l-4.376-.065a.642.642,0,0,0-.624.525l-3.514,22.279a.85.85,0,0,1-.612.647l-3.645.787a.886.886,0,0,0-.629.644l-.861,4.517a.332.332,0,0,0,.427.416l3.834-.828c.29-.063.527-.108.526-.1s.235-.039.525-.1Z" transform="translate(72.318 245.19)" fill="#fff"/>
      </g>
      <g id="Group_54" data-name="Group 54" transform="translate(54.65 46.883)">
        <path id="Path_22" data-name="Path 22" d="M-264.73-203.2a.889.889,0,0,0,.62-.654l.807-4.545a.33.33,0,0,0-.431-.409l-8.848,2.069a.41.41,0,0,1-.526-.417v-16.483a.541.541,0,0,1,.54-.54h25.217a.419.419,0,0,1,.427.528l-2.8,13.051a.35.35,0,0,0,.421.448l4.458-.666a.841.841,0,0,0,.647-.608L-240.429-229a.419.419,0,0,0-.427-.528h-57.753a.4.4,0,0,0-.4.522l1.148,4.306a.743.743,0,0,0,.679.522H-279a.541.541,0,0,1,.54.54v17.734a.715.715,0,0,1-.526.663l-1.279.3a.715.715,0,0,0-.526.663v4.269a.41.41,0,0,0,.526.418l1.279-.3a.41.41,0,0,1,.526.418V-179.9a.42.42,0,0,0,.528.427l4.293-.915a.7.7,0,0,0,.528-.653v-19.675a.714.714,0,0,1,.526-.662Z" transform="translate(299.027 229.531)" fill="#fff"/>
      </g>
      <g id="Group_55" data-name="Group 55" transform="translate(84.423 46.883)">
        <path id="Path_23" data-name="Path 23" d="M-338.649-297.36a3.1,3.1,0,0,1,.227-.59l17.376-37.445a.319.319,0,0,0-.313-.49h-4.268a.924.924,0,0,0-.767.49l-6.81,14.675a1.228,1.228,0,0,1-.755.6l-13.571,2.941c-.29.063-.468-.121-.394-.409l4.528-17.777a.4.4,0,0,0-.407-.523h-4.268a.733.733,0,0,0-.673.523l-4.84,19c-.073.288-.134.523-.136.524s-.063.236-.136.524l-1.177,4.615c-.073.288.1.472.394.409l17.923-3.888c.29-.063.425.106.3.375l-5.3,11.413a1.227,1.227,0,0,1-.755.6l-38.559,8.324a.885.885,0,0,0-.629.644l-.861,4.518a.332.332,0,0,0,.427.417l42.6-9.2c.29-.063.57-.114.621-.114s.1-.01.1-.022a.1.1,0,0,1,.062-.034c.028-.006.052-.056.052-.111" transform="translate(382.524 335.885)" fill="#fff"/>
      </g>
      <g id="Group_56" data-name="Group 56" transform="translate(0 46.883)">
        <path id="Path_24" data-name="Path 24" d="M-441.254-322.575a1.09,1.09,0,0,1-.712-.62l-12.847-35.316a.354.354,0,0,1,.355-.507h6.316a.318.318,0,0,0,.312-.489l-2.038-4.37a.926.926,0,0,0-.768-.489h-18.39a.318.318,0,0,0-.311.489l2.037,4.37a.926.926,0,0,0,.768.489h5.338a.434.434,0,0,1,.442.531l-3.861,20.992c-.054.292-.259.35-.457.128L-484-358.616c-.2-.222-.116-.4.18-.4h2.363a.318.318,0,0,0,.312-.489l-2.038-4.37a.926.926,0,0,0-.768-.489h-14.111a.318.318,0,0,0-.312.489l2.037,4.37a.926.926,0,0,0,.768.489h3.109a.926.926,0,0,1,.768.489l12.822,27.5c.126.269-.009.438-.3.375l-3.725-.806c-.29-.063-.425.106-.3.375l2.365,5.1a1.227,1.227,0,0,0,.755.6l15.757,3.409c.29.063.425-.106.3-.375l-2.365-5.1a1.226,1.226,0,0,0-.755-.6l-5.028-1.088a1.229,1.229,0,0,1-.756-.6l-8.57-18.378c-.125-.269-.063-.311.138-.093l13.908,15.058a1.761,1.761,0,0,0,.9.471l5.911.825a1.289,1.289,0,0,0,.493.028,1.966,1.966,0,0,1,.054-.578l3.022-16.789c.053-.292.179-.3.28-.024l9.017,24.787c.1.279-.053.456-.343.394l-8.346-1.79c-.29-.062-.445.115-.343.394l1.789,4.921a1.088,1.088,0,0,0,.712.621l26.777,5.743a.378.378,0,0,0,.483-.425l-.374-4.5a.775.775,0,0,0-.573-.651Z" transform="translate(498.421 364.367)" fill="#fff"/>
      </g>
    </g>
  </g>
</svg>
