<svg xmlns="http://www.w3.org/2000/svg" xmlns:xlink="http://www.w3.org/1999/xlink" width="20" height="20" viewBox="0 0 20 20">
  <defs>
    <clipPath id="clip-path">
      <path id="Path_13" data-name="Path 13" d="M0-469H20v20H0Z" transform="translate(0 469)" fill="#fff"/>
    </clipPath>
  </defs>
  <g id="Group_33" data-name="Group 33" clip-path="url(#clip-path)">
    <g id="Group_32" data-name="Group 32" transform="translate(0 0)">
      <path id="Path_12" data-name="Path 12" d="M-347.127-294.922h-4.94a.211.211,0,0,1-.193-.205v-5.655c0-.1.038-.158.172-.209a3.182,3.182,0,0,1,1.141-.213,3.146,3.146,0,0,1,3.131,2.865,1.787,1.787,0,0,1,.689-.138,1.782,1.782,0,0,1,1.781,1.782,1.774,1.774,0,0,1-1.781,1.774m-5.3-.2v0a.2.2,0,0,1-.2.2.2.2,0,0,1-.2-.195l-.04-.718-.04-.738.08-3.994v-.02a.2.2,0,0,1,.073-.151.194.194,0,0,1,.123-.044.2.2,0,0,1,.1.027.2.2,0,0,1,.1.168l.087,4.015Zm-.613-.127-.008.146a.19.19,0,0,1-.055.13.185.185,0,0,1-.128.053.182.182,0,0,1-.141-.067.182.182,0,0,1-.043-.109.027.027,0,0,1,0-.007s-.07-1.477-.07-1.48l.07-3.644v-.035a.185.185,0,0,1,.085-.153.177.177,0,0,1,.1-.03.176.176,0,0,1,.1.032.185.185,0,0,1,.083.152l.077,3.681Zm-.631.157h0a.171.171,0,0,1-.171.17.172.172,0,0,1-.172-.169l-.076-1.489.076-3.092a.173.173,0,0,1,.172-.171.171.171,0,0,1,.171.171l.086,3.093Zm-.619.009h0a.161.161,0,0,1-.159.158.159.159,0,0,1-.158-.157l-.085-1.5.084-3.21a.16.16,0,0,1,.159-.159.16.16,0,0,1,.159.159l.095,3.21Zm-.614.013a.148.148,0,0,1-.147.146.148.148,0,0,1-.147-.145l-.092-1.512.092-3.294a.148.148,0,0,1,.147-.146.148.148,0,0,1,.147.146l.1,3.294Zm-.61.01h0a.136.136,0,0,1-.134.133.136.136,0,0,1-.134-.132l-.1-1.521.1-3.187a.137.137,0,0,1,.134-.134.136.136,0,0,1,.134.134l.111,3.187Zm-.613.024h0a.125.125,0,0,1-.123.121.125.125,0,0,1-.121-.121l-.106-1.537.106-2.941a.124.124,0,0,1,.121-.121.125.125,0,0,1,.123.121l.12,2.941Zm-.591,0h0a.113.113,0,0,1-.11.109.113.113,0,0,1-.11-.108l-.112-1.547.112-2.394a.113.113,0,0,1,.11-.109.113.113,0,0,1,.11.108l.127,2.395Zm-.6,0a.1.1,0,0,1-.1.1.1.1,0,0,1-.1-.1l-.12-1.547.12-1.471a.1.1,0,0,1,.1-.1.1.1,0,0,1,.1.095l.137,1.472Zm-.59-.012a.088.088,0,0,1-.085.083.088.088,0,0,1-.086-.083l-.127-1.534.127-1.586a.088.088,0,0,1,.086-.084.088.088,0,0,1,.085.084l.144,1.586Zm-.587-.047a.075.075,0,0,1-.072.071.074.074,0,0,1-.073-.071l-.135-1.487.135-1.544a.074.074,0,0,1,.073-.072.075.075,0,0,1,.072.072l.153,1.544Zm-.581-.216a.063.063,0,0,1-.061.058.063.063,0,0,1-.06-.058l-.142-1.272.142-1.3a.064.064,0,0,1,.06-.058.064.064,0,0,1,.061.058l.162,1.3Zm-.539-.481a.06.06,0,0,1-.058.056.06.06,0,0,1-.058-.056l-.106-.791.106-.8a.06.06,0,0,1,.058-.057.061.061,0,0,1,.058.057l.126.805Zm7.022-12.27a10,10,0,0,0-10,10,10,10,0,0,0,10,10,10,10,0,0,0,10-10,10,10,0,0,0-10-10" transform="translate(362.589 308.059)" fill="#fff"/>
    </g>
  </g>
</svg>
