<svg xmlns="http://www.w3.org/2000/svg" xmlns:xlink="http://www.w3.org/1999/xlink" width="20" height="20" viewBox="0 0 20 20">
  <defs>
    <clipPath id="clip-path">
      <path id="Path_9" data-name="Path 9" d="M0-595.281H20v20H0Z" transform="translate(0 595.281)" fill="#fff"/>
    </clipPath>
  </defs>
  <g id="Group_20" data-name="Group 20" clip-path="url(#clip-path)">
    <g id="Group_19" data-name="Group 19" transform="translate(0 0)">
      <path id="Path_8" data-name="Path 8" d="M-471.873-272.439a.99.99,0,0,1-.5-.136c-5.06-2.957-11.625-1.2-11.691-1.181a.994.994,0,0,1-1.222-.694.993.993,0,0,1,.694-1.222,20.684,20.684,0,0,1,4.4-.6,19.4,19.4,0,0,1,4.243.307,14.32,14.32,0,0,1,4.574,1.67.994.994,0,0,1,.357,1.359.993.993,0,0,1-.859.492m-.782,2.4a.81.81,0,0,1-.7.4.806.806,0,0,1-.408-.111,11.924,11.924,0,0,0-6.276-1.393,15.572,15.572,0,0,0-3.256.43.811.811,0,0,1-1-.567.81.81,0,0,1,.566-1,16.866,16.866,0,0,1,3.59-.486,15.813,15.813,0,0,1,3.459.25,11.674,11.674,0,0,1,3.729,1.361.81.81,0,0,1,.291,1.108m-1.271,2.64a.684.684,0,0,1-.591.339.682.682,0,0,1-.344-.093,10.066,10.066,0,0,0-5.3-1.176,13.14,13.14,0,0,0-2.748.363.684.684,0,0,1-.84-.479.683.683,0,0,1,.477-.84,14.23,14.23,0,0,1,3.031-.41,13.347,13.347,0,0,1,2.92.211,9.852,9.852,0,0,1,3.149,1.149.684.684,0,0,1,.245.935m-4.352-14.513a10,10,0,0,0-10,10,10,10,0,0,0,10,10,10,10,0,0,0,10-10,10,10,0,0,0-10-10" transform="translate(488.278 281.911)" fill="#fff"/>
    </g>
  </g>
</svg>
